<?xml version="1.0" encoding="utf-8"?>
<!-- Generator: Adobe Illustrator 24.0.0, SVG Export Plug-In . SVG Version: 6.00 Build 0)  -->
<svg version="1.1" id="Layer_1" xmlns="http://www.w3.org/2000/svg" xmlns:xlink="http://www.w3.org/1999/xlink" x="0px" y="0px"
	 viewBox="0 0 1000 1000" style="enable-background:new 0 0 1000 1000;" xml:space="preserve">
<style type="text/css">
	.st0{opacity:0.96;}
	.st1{fill:#95B0B9;}
	.st2{fill:#B2C2C9;}
</style>
<g class="st0">
	<path id="Polygon_1" class="st1" d="M891.1,634c17,25.1,10.5,59.3-14.7,76.4c-9.1,6.2-20,9.5-31,9.5l-398.5-1
		c-30.4-0.1-54.9-24.8-54.9-55.1c0-9,2.2-17.8,6.4-25.7l174.9-328.9c14.3-26.8,47.6-37,74.4-22.7c7.9,4.2,14.7,10.3,19.7,17.7
		L891.1,634z"/>
	<path id="Polygon_2" class="st2" d="M108.8,441.3c-17-25.2-10.3-59.4,14.8-76.4c9.1-6.1,19.8-9.4,30.8-9.4h252.4
		c30.4,0,55,24.6,55,55c0,9-2.2,17.9-6.4,25.8L344.1,645.5c-14.3,26.8-47.6,37-74.4,22.7c-8-4.2-14.7-10.3-19.8-17.8L108.8,441.3z"
		/>
</g>
</svg>
