<?xml version="1.0" encoding="utf-8"?>
<!-- Generator: Adobe Illustrator 24.0.0, SVG Export Plug-In . SVG Version: 6.00 Build 0)  -->
<svg version="1.1" id="Layer_1" xmlns="http://www.w3.org/2000/svg" xmlns:xlink="http://www.w3.org/1999/xlink" x="0px" y="0px"
	 viewBox="0 0 1200 1000" style="enable-background:new 0 0 1200 1000;" xml:space="preserve">
<style type="text/css">
	.st0{fill:#009DF5;}
	.st1{enable-background:new    ;}
	.st2{fill:#FFFFFF;}
	.st3{fill:#B2C2C9;}
	.st4{fill:#95B0B9;}
</style>
<g>
	<path id="Rectangle_2_1_" class="st0" d="M888.2,844h235c41.1,0,74.5,33.4,74.5,74.5l0,0c0,41.1-33.4,74.5-74.5,74.5h-235
		c-41.1,0-74.5-33.4-74.5-74.5l0,0C813.7,877.4,847.1,844,888.2,844z"/>
	<g class="st1">
		<path class="st2" d="M914.7,891.9l19.9,53.2h-12.2l-4-11.8h-19.9l-4.1,11.8h-11.8l20.1-53.2H914.7z M915.4,924.6l-6.7-19.5h-0.1
			l-6.9,19.5H915.4z"/>
		<path class="st2" d="M962.1,891.9c3.4,0,6.6,0.5,9.6,1.6c2.9,1.1,5.5,2.7,7.7,4.9s3.9,4.9,5.1,8.2c1.2,3.3,1.8,7.1,1.8,11.6
			c0,3.9-0.5,7.4-1.5,10.7c-1,3.3-2.4,6.1-4.5,8.5c-2,2.4-4.5,4.3-7.6,5.6c-3,1.3-6.6,2.1-10.6,2.1h-22.9v-53.2H962.1z M961.2,935.3
			c1.7,0,3.3-0.2,4.9-0.9c1.6-0.5,3-1.5,4.3-2.7s2.2-2.9,2.9-5c0.7-2.1,1.1-4.5,1.1-7.4c0-2.7-0.2-5.1-0.7-7.3
			c-0.5-2.2-1.3-4-2.6-5.6c-1.2-1.6-2.8-2.7-4.8-3.5c-2-0.9-4.4-1.2-7.3-1.2h-8.3v33.5h10.5V935.3z"/>
		<path class="st2" d="M1010.9,891.9l12.4,36.6h0.1l11.8-36.6h16.5v53.2h-11v-37.7h-0.1l-13,37.7h-9l-13-37.3h-0.1v37.3h-11v-53.2
			H1010.9z"/>
		<path class="st2" d="M1073.7,891.9v53.2H1062v-53.2H1073.7z"/>
		<path class="st2" d="M1095.5,891.9l22.2,35.7h0.1v-35.7h11v53.2h-11.7l-22.1-35.6h-0.1v35.6h-11v-53.2H1095.5z"/>
	</g>
</g>
<g>
	<g class="st1">
		<path class="st3" d="M212,594.9h123.8v35.2h-41.8V771h-40.1V630.1H212L212,594.9L212,594.9z"/>
		<path class="st3" d="M336.5,661.5h37.8v15.9h0.5c0,0,11.9-19,33.5-19c14.1,0,23.9,6.8,23.9,6.8l-15.9,32.1c0,0-7.1-6-19.6-6
			c-19.6,0-22.4,19.4-22.4,22.2v57.7h-37.8V661.5z"/>
		<path class="st3" d="M487.6,658.3c14.8,0,26.9,4.9,35.8,13.7v-10.5h37.8V771h-37.3v-12.4h-0.5c-8,9-21,15.6-35.8,15.6
			c-32.1,0-54.4-25.8-54.4-57.8C433.2,684.4,455.5,658.3,487.6,658.3z M498.9,741.9c14.8,0,25.4-10.7,25.4-25.6
			c0-15.1-11.3-25.8-25.4-25.8c-14.3,0-25.6,10.7-25.6,25.8C473.3,731.2,483.5,741.9,498.9,741.9z"/>
		<path class="st3" d="M638.4,742.1h50v28.8H575.1l54.3-80.7h-45.2v-28.8h108.6L638.4,742.1z"/>
		<path class="st3" d="M753,658.3c14.8,0,26.9,4.9,35.8,13.7v-10.5h37.8V771h-37.3v-12.4H789c-8.2,9-21,15.6-35.8,15.6
			c-31.9,0-54.4-25.8-54.4-57.8C698.7,684.4,720.9,658.3,753,658.3z M764.3,741.9c14.8,0,25.4-10.7,25.4-25.6
			c0-15.1-11.3-25.8-25.4-25.8c-14.3,0-25.6,10.7-25.6,25.8C738.7,731.2,749,741.9,764.3,741.9z"/>
	</g>
	<g class="st1">
		<path class="st3" d="M947.6,647.8c-4.3-4.9-10-8.8-17.2-11.7c-7.2-3-15.2-4.5-24.3-4.5c-13.5,0-23.3,2.6-29.5,7.6
			c-6.1,5-9.1,11.9-9.1,20.6c0,4.5,0.9,8.3,2.4,11.2c1.6,2.9,4.1,5.5,7.7,7.6c3.5,2.2,7.9,4,13.3,5.5c5.4,1.6,11.6,3.2,18.9,4.8
			c8.2,1.7,15.4,3.5,21.8,5.6c6.3,2.1,11.8,4.6,16.5,7.9c4.5,3.2,8,7.1,10.5,11.7c2.4,4.6,3.7,10.4,3.7,17.2c0,6.9-1.3,13-4,18.2
			c-2.7,5.1-6.5,9.4-11.3,12.8s-10.6,6-17.3,7.6s-13.9,2.4-21.8,2.4c-23.8,0-44-7.3-60.8-21.9l7.3-12.2c5.5,5.9,13,10.7,22.4,14.9
			c9.4,4.1,19.9,6.1,31.3,6.1c12.1,0,21.6-2.2,28.4-6.5c6.8-4.4,10.2-11,10.2-19.8c0-4.6-1-8.7-2.9-11.8c-2-3.2-4.8-6-8.7-8.3
			c-3.9-2.3-8.7-4.4-14.4-6.1s-12.4-3.4-20-5.1c-7.9-1.8-14.9-3.8-21-5.7c-6-2-11-4.5-15-7.4c-4-2.9-7.1-6.6-9.1-10.7
			c-2.1-4.1-3-9.4-3-15.5c0-6.9,1.3-13.2,3.9-18.7c2.7-5.5,6.3-10,11.1-13.7c4.8-3.7,10.5-6.5,17.1-8.3c6.6-2,13.9-2.9,21.8-2.9
			c10,0,18.9,1.6,26.8,4.6c7.9,3,15,7.3,21.5,12.9L947.6,647.8z"/>
		<path class="st3" d="M1019.5,773c-11.7,0-20.5-4-26.5-12.1c-6-8-9-20-9-36v-65.4h14.5v62.8c0,25.2,8.7,37.8,25.8,37.8
			c4.3,0,8.4-0.7,12.6-2.2c4.1-1.5,7.9-3.5,11.5-6.2c3.5-2.7,6.6-5.9,9.4-9.6c2.8-3.7,5-7.9,6.7-12.6v-70h14.5v92.4c0,4,1.8,6,5.4,6
			v12.8c-2.8,0.4-4.9,0.6-6,0.6c-3.3,0-6.1-1-8.4-3c-2.3-2-3.5-4.5-3.5-7.4v-15.4c-5,8.7-11.6,15.4-19.9,20.1
			C1038.3,770.7,1029.3,773,1019.5,773z"/>
		<path class="st3" d="M1167.3,672.6c-9.8,0.2-18.3,3-25.6,8.2c-7.3,5.1-12.4,12.2-15.4,21.1V771h-14.5V659.8h13.7v26.7
			c3.9-7.8,8.9-14.4,15.1-19.5c6.2-5.2,13-7.8,20.2-7.8c1.2,0,2.4,0,3.7,0c1.1,0,2.1,0.1,2.8,0.2V672.6z"/>
	</g>
	<path id="Polygon_1_2_" class="st4" d="M966.6,438.6c20.7,30.6,12.8,72.3-17.9,93.2c-11.1,7.6-24.4,11.6-37.8,11.6L425,542.1
		c-37.1-0.1-66.9-30.2-66.9-67.2c0-11,2.7-21.7,7.8-31.3l213.3-401c17.4-32.7,58-45.1,90.7-27.7c9.6,5.1,17.9,12.6,24,21.6
		L966.6,438.6z"/>
	<path id="Polygon_2_2_" class="st3" d="M12.8,203.6c-20.7-30.7-12.6-72.4,18-93.2C41.9,103,54.9,99,68.4,99h307.7
		c37.1,0,67.1,30,67.1,67.1c0,11-2.7,21.8-7.8,31.5L299.7,452.6c-17.4,32.7-58,45.1-90.7,27.7c-9.8-5.1-17.9-12.6-24.1-21.7
		L12.8,203.6z"/>
</g>
</svg>
