<?xml version="1.0" encoding="utf-8"?>
<!-- Generator: Adobe Illustrator 24.0.0, SVG Export Plug-In . SVG Version: 6.00 Build 0)  -->
<svg version="1.1" id="Layer_1" xmlns="http://www.w3.org/2000/svg" xmlns:xlink="http://www.w3.org/1999/xlink" x="0px" y="0px"
	 viewBox="0 0 1000 1000" style="enable-background:new 0 0 1000 1000;" xml:space="preserve">
<style type="text/css">
	.st0{fill:#FFFFFF;}
	.st1{fill:#009DF5;}
	.st2{enable-background:new    ;}
	.st3{font-family:'LeagueSpartan-Bold';}
	.st4{font-size:175.0051px;}
	.st5{font-family:'Raleway';}
	.st6{fill:#B2C2C9;}
	.st7{fill:#95B0B9;}
</style>
<path id="Polygon_1" class="st0" d="M806.6,511c17,25.1,10.5,59.3-14.7,76.4c-9.1,6.2-20,9.5-31,9.5l-398.5-1
	c-30.4-0.1-54.9-24.8-54.9-55.1c0-9,2.2-17.8,6.4-25.7l174.9-328.9c14.3-26.8,47.6-37,74.4-22.7c7.9,4.2,14.7,10.3,19.7,17.7
	L806.6,511z"/>
<path id="Polygon_2" class="st0" d="M24.3,318.3c-17-25.2-10.3-59.4,14.8-76.4c9.1-6.1,19.8-9.4,30.8-9.4l252.4,0
	c30.4,0,55,24.6,55,55c0,9-2.2,17.9-6.4,25.8L259.6,522.5c-14.3,26.8-47.6,37-74.4,22.7c-8-4.2-14.7-10.3-19.8-17.8L24.3,318.3z"/>
<text transform="matrix(1 0 0 1 185.8891 783.6234)" class="st0 st3 st4">Traza</text>
<text transform="matrix(1 0 0 1 701.8013 783.6234)" class="st0 st5 st4">Sur</text>
</svg>
