<?xml version="1.0" encoding="utf-8"?>
<!-- Generator: Adobe Illustrator 24.0.0, SVG Export Plug-In . SVG Version: 6.00 Build 0)  -->
<svg version="1.1" id="Layer_1" xmlns="http://www.w3.org/2000/svg" xmlns:xlink="http://www.w3.org/1999/xlink" x="0px" y="0px"
	 viewBox="0 0 1000 1000" style="enable-background:new 0 0 1000 1000;" xml:space="preserve">
<style type="text/css">
	.st0{enable-background:new    ;}
	.st1{fill:#B2C2C9;}
	.st2{fill:#95B0B9;}
</style>
<g class="st0">
	<path class="st1" d="M187.7,639.2h101.5v28.9h-34.3v115.5H222V668.1h-34.3V639.2z"/>
	<path class="st1" d="M289.8,693.8h31v13h0.4c0,0,9.8-15.6,27.5-15.6c11.6,0,19.6,5.6,19.6,5.6l-13,26.3c0,0-5.8-4.9-16.1-4.9
		c-16.1,0-18.4,15.9-18.4,18.2v47.3h-31V693.8z"/>
	<path class="st1" d="M413.7,691.2c12.1,0,22.1,4,29.4,11.2v-8.6h31v89.8h-30.6v-10.2h-0.4c-6.6,7.4-17.2,12.8-29.4,12.8
		c-26.3,0-44.6-21.2-44.6-47.4S387.4,691.2,413.7,691.2z M423,759.8c12.1,0,20.8-8.8,20.8-21c0-12.4-9.3-21.2-20.8-21.2
		c-11.7,0-21,8.8-21,21.2C402,751,410.4,759.8,423,759.8z"/>
	<path class="st1" d="M537.4,759.9h41v23.6h-92.9l44.5-66.2h-37.1v-23.6h89.1L537.4,759.9z"/>
	<path class="st1" d="M631.4,691.2c12.1,0,22.1,4,29.4,11.2v-8.6h31v89.8h-30.6v-10.2h-0.3c-6.7,7.4-17.2,12.8-29.4,12.8
		c-26.2,0-44.6-21.2-44.6-47.4S605.1,691.2,631.4,691.2z M640.7,759.8c12.1,0,20.8-8.8,20.8-21c0-12.4-9.3-21.2-20.8-21.2
		c-11.7,0-21,8.8-21,21.2C619.7,751,628.1,759.8,640.7,759.8z"/>
</g>
<g class="st0">
	<path class="st1" d="M791,682.6c-3.5-4-8.2-7.2-14.1-9.6c-5.9-2.5-12.5-3.7-19.9-3.7c-11.1,0-19.1,2.1-24.2,6.2
		c-5,4.1-7.5,9.8-7.5,16.9c0,3.7,0.7,6.8,2,9.2c1.3,2.4,3.4,4.5,6.3,6.2c2.9,1.8,6.5,3.3,10.9,4.5c4.4,1.3,9.5,2.6,15.5,3.9
		c6.7,1.4,12.6,2.9,17.9,4.6c5.2,1.7,9.7,3.8,13.5,6.5c3.7,2.6,6.6,5.8,8.6,9.6c2,3.8,3,8.5,3,14.1c0,5.7-1.1,10.7-3.3,14.9
		c-2.2,4.2-5.3,7.7-9.3,10.5c-4,2.8-8.7,4.9-14.2,6.2c-5.5,1.3-11.4,2-17.9,2c-19.5,0-36.1-6-49.9-18l6-10
		c4.5,4.8,10.7,8.8,18.4,12.2s16.3,5,25.7,5c9.9,0,17.7-1.8,23.3-5.3c5.6-3.6,8.4-9,8.4-16.2c0-3.8-0.8-7.1-2.4-9.7
		s-3.9-4.9-7.1-6.8c-3.2-1.9-7.1-3.6-11.8-5c-4.7-1.4-10.2-2.8-16.4-4.2c-6.5-1.5-12.2-3.1-17.2-4.7c-4.9-1.6-9-3.7-12.3-6.1
		c-3.3-2.4-5.8-5.4-7.5-8.8c-1.7-3.4-2.5-7.7-2.5-12.7c0-5.7,1.1-10.8,3.2-15.3c2.2-4.5,5.2-8.2,9.1-11.2c3.9-3,8.6-5.3,14-6.8
		c5.4-1.6,11.4-2.4,17.9-2.4c8.2,0,15.5,1.3,22,3.8c6.5,2.5,12.3,6,17.6,10.6L791,682.6z"/>
	<path class="st1" d="M850,785.3c-9.6,0-16.8-3.3-21.7-9.9c-4.9-6.6-7.4-16.4-7.4-29.5v-53.6h11.9v51.5c0,20.7,7.1,31,21.2,31
		c3.5,0,6.9-0.6,10.3-1.8c3.4-1.2,6.5-2.9,9.4-5.1c2.9-2.2,5.4-4.8,7.7-7.9c2.3-3,4.1-6.5,5.5-10.3v-57.4h11.9v75.8
		c0,3.3,1.5,4.9,4.4,4.9v10.5c-2.3,0.3-4,0.5-4.9,0.5c-2.7,0-5-0.8-6.9-2.5c-1.9-1.6-2.9-3.7-2.9-6.1v-12.6
		c-4.1,7.1-9.5,12.6-16.3,16.5C865.4,783.4,858,785.3,850,785.3z"/>
	<path class="st1" d="M971.2,702.9c-8,0.2-15,2.5-21,6.7s-10.2,10-12.6,17.3v56.7h-11.9v-91.2h11.2v21.9c3.2-6.4,7.3-11.8,12.4-16
		c5.1-4.3,10.7-6.4,16.6-6.4c1,0,2,0,3,0c0.9,0,1.7,0.1,2.3,0.2V702.9z"/>
</g>
<path id="Polygon_1" class="st2" d="M806.6,511c17,25.1,10.5,59.3-14.7,76.4c-9.1,6.2-20,9.5-31,9.5l-398.5-1
	c-30.4-0.1-54.9-24.8-54.9-55.1c0-9,2.2-17.8,6.4-25.7l174.9-328.9c14.3-26.8,47.6-37,74.4-22.7c7.9,4.2,14.7,10.3,19.7,17.7
	L806.6,511z"/>
<path id="Polygon_2" class="st1" d="M24.3,318.3c-17-25.2-10.3-59.4,14.8-76.4c9.1-6.1,19.8-9.4,30.8-9.4l252.4,0
	c30.4,0,55,24.6,55,55c0,9-2.2,17.9-6.4,25.8L259.6,522.5c-14.3,26.8-47.6,37-74.4,22.7c-8-4.2-14.7-10.3-19.8-17.8L24.3,318.3z"/>
</svg>
